# xmcd
#
# Track frame offsets: 
#        150
#        14810
#        27225
#        46307
#        59807
#        72727
#        87500
#        101035
#        114777
#        125002
#        138695
#        155712
#        168612
#        181887
#        196990
#        209027
#        221925
#        233030
#
# Disc length: 3295 seconds
#
# Revision: 2
# Processed by: cddbd v1.5.2PL0 Copyright (c) Steve Scherf et al.
# Submitted via: ExactAudioCopyFreeDBPlugin 1.0
#
DISCID=240cdd12
DTITLE=Muddy Waters - The Best of Muddy Waters - Volume One [Telstar]
DYEAR=1988
DGENRE=Blues
TTITLE0=Baby Please Don't Go
TTITLE1=Walkin' Thru the Park
TTITLE2=Got My Mojo Working
TTITLE3=Rollin' Stone
TTITLE4=I Just Want to Make Love to You
TTITLE5=Still a Fool (Two Trains Running)
TTITLE6=Rollin' and Tumblin'
TTITLE7=I'm Ready
TTITLE8=Tiger in Your Tank
TTITLE9=I Want You to Love Me
TTITLE10=Rock Me
TTITLE11=Hoochie Coochie Man
TTITLE12=She Moves Me
TTITLE13=Standing Around Crying
TTITLE14=Long Distance Call
TTITLE15=40 Days and 40 Nights
TTITLE16=Gone to Main Street
TTITLE17=My Eyes (Keep Me in Trouble)
EXTD=
EXTT0=
EXTT1=
EXTT2=
EXTT3=
EXTT4=
EXTT5=
EXTT6=
EXTT7=
EXTT8=
EXTT9=
EXTT10=
EXTT11=
EXTT12=
EXTT13=
EXTT14=
EXTT15=
EXTT16=
EXTT17=
PLAYORDER=
